<?xml version="1.0" encoding="UTF-8"?>
<svg xmlns="http://www.w3.org/2000/svg" width="1em" height="1em" fill="currentColor" viewBox="0 0 64 64">
    <path fill-rule="evenodd" d="M 0.509333 40.984825 C 0.261655 40.981098 0.142935 40.935783 0.078812 40.820499 C 0.030117 40.732952 -0.017419 39.782406 -0.026823 38.708176 C -0.042675 36.897339 -0.03068 36.746819 0.137805 36.642342 C 0.249332 36.573185 1.269174 36.521957 2.777897 36.509724 C 4.129999 36.49876 5.569469 36.448841 5.97672 36.398788 C 6.383971 36.348736 6.974545 36.23877 7.289106 36.154411 C 7.603667 36.070053 8.001936 35.891289 8.17415 35.757145 C 8.459798 35.534645 8.494611 35.460823 8.571032 34.915558 C 8.635803 34.4534 8.607402 34.152828 8.445782 33.590076 C 8.330823 33.189793 8.216391 32.515724 8.191488 32.092148 C 8.154896 31.46973 8.190364 31.150146 8.376392 30.42606 C 8.551297 29.745274 8.697149 29.390156 8.983731 28.947327 C 9.191167 28.626797 9.580472 28.137936 9.848853 27.86097 C 10.117235 27.584003 10.593055 27.164413 10.906233 26.928547 C 11.219409 26.69268 11.849807 26.300194 12.307113 26.056355 C 12.764422 25.812511 13.555124 25.45187 14.064228 25.254925 C 14.573335 25.05798 15.569082 24.742199 16.277004 24.553188 C 16.984926 24.364178 17.985214 24.162457 18.499868 24.104919 C 19.014521 24.047382 20.303368 23.992737 21.363972 23.98349 C 22.424578 23.974239 23.615894 23.972954 24.011341 23.980629 C 24.574228 23.991562 24.74931 24.022915 24.817705 24.125031 C 24.885109 24.225655 24.831228 24.423199 24.581987 24.989269 C 24.404287 25.392864 24.133499 25.983036 23.980236 26.300766 C 23.826973 26.6185 23.540749 27.216557 23.344179 27.629791 C 23.147612 28.043026 22.93133 28.419064 22.863552 28.465431 C 22.795776 28.511803 22.413744 28.558273 22.014593 28.568703 C 21.615444 28.579132 20.959822 28.608265 20.557655 28.63345 C 20.155489 28.65863 19.561106 28.728191 19.236801 28.788029 C 18.912498 28.847862 18.421371 28.983101 18.145409 29.088554 C 17.857048 29.198742 17.46203 29.458141 17.216593 29.698483 C 16.846182 30.061199 16.774839 30.188511 16.678825 30.658134 C 16.587793 31.10339 16.60433 31.320179 16.771904 31.878315 C 16.88398 32.251614 16.994587 32.750435 17.017693 32.986805 C 17.0408 33.223175 17.082632 33.667137 17.110655 33.973381 C 17.149334 34.396118 17.114468 34.682648 16.96586 35.163353 C 16.858204 35.511589 16.580683 36.120274 16.349148 36.51598 C 16.117613 36.91169 15.701479 37.457298 15.424403 37.728447 C 15.147328 37.999596 14.560211 38.469795 14.119697 38.773331 C 13.679185 39.076866 12.983433 39.482494 12.573579 39.674728 C 12.163727 39.866966 11.525193 40.13028 11.154616 40.259872 C 10.784039 40.389469 10.073878 40.579437 9.576482 40.68203 C 9.013281 40.798195 8.0521 40.882225 7.028525 40.904785 C 6.124545 40.924706 4.364863 40.952026 3.11812 40.965492 C 1.871379 40.978958 0.697424 40.987656 0.509333 40.984825 Z M 18.940449 40.905807 C 18.627522 40.896347 18.529806 40.861229 18.510418 40.751255 C 18.496622 40.672981 18.609074 40.331108 18.760315 39.991535 C 18.911556 39.651958 19.150942 39.122307 19.292284 38.814526 C 19.43363 38.506744 19.750904 37.798759 19.997345 37.241222 C 20.243784 36.683685 20.643505 35.79155 20.885611 35.258698 C 21.127714 34.725845 21.572878 33.736954 21.874861 33.061165 C 22.176844 32.385368 22.457958 31.749512 22.499561 31.64814 C 22.541162 31.546768 22.666504 31.390671 22.778093 31.301258 C 22.947405 31.165592 23.419331 31.137222 25.629578 31.129848 C 27.086304 31.124985 28.362738 31.13105 28.466101 31.143326 C 28.596313 31.158794 28.650265 31.231438 28.641766 31.379879 C 28.635019 31.497707 28.476912 31.909782 28.290413 32.295593 C 28.103916 32.681412 27.789495 33.355743 27.591694 33.794109 C 27.393894 34.232475 27.034294 35.02713 26.792578 35.560013 C 26.550856 36.092892 26.202286 36.858047 26.017973 37.260357 C 25.833658 37.662666 25.525194 38.340744 25.332499 38.767193 C 25.139799 39.193645 24.876638 39.794849 24.74769 40.103203 C 24.604769 40.444977 24.42218 40.723064 24.279976 40.81554 C 24.11636 40.92194 23.81942 40.95787 23.285507 40.935875 C 22.866844 40.918625 22.044914 40.919029 21.458994 40.936775 C 20.873074 40.954517 20.157818 40.957561 19.869539 40.943539 C 19.581261 40.929516 19.16317 40.912537 18.940449 40.905807 Z M 29.761856 40.932999 C 29.649786 40.956345 29.579388 40.922394 29.566233 40.838654 C 29.554926 40.766701 29.657717 40.465694 29.794645 40.16975 C 29.931574 39.873806 30.157097 39.390472 30.295809 39.095673 C 30.434525 38.800873 30.71294 38.191086 30.914518 37.740593 C 31.116091 37.290092 31.39085 36.689812 31.525093 36.406631 C 31.659342 36.123447 31.931585 35.533329 32.130089 35.095253 C 32.32859 34.657181 32.68634 33.87281 32.925095 33.352219 C 33.163841 32.831627 33.521194 32.046967 33.719212 31.608528 C 33.917225 31.17009 34.196819 30.560093 34.340534 30.252983 C 34.484253 29.945869 34.668156 29.487 34.749222 29.233269 C 34.865795 28.868393 34.869125 28.755062 34.765152 28.691196 C 34.692852 28.64679 34.121838 28.603642 33.496231 28.595318 C 32.870628 28.586994 32.125217 28.573673 31.839758 28.56572 C 31.447046 28.554779 31.29784 28.517384 31.226618 28.41206 C 31.150282 28.299168 31.317455 27.886486 32.111149 26.228527 C 32.64941 25.104145 33.15889 24.139271 33.243324 24.084362 C 33.327755 24.029453 33.85078 23.986103 34.405594 23.988029 C 34.960411 23.98996 36.118279 24.000973 36.97863 24.012512 C 38.358521 24.031017 38.606003 24.057728 39.078133 24.23909 C 39.605511 24.441677 39.626583 24.441601 40.517063 24.23386 C 41.014107 24.117905 41.718628 23.998924 42.082672 23.969456 C 42.446716 23.939983 43.091949 23.956314 43.516525 24.005737 C 44.094284 24.072998 44.450172 24.167915 44.93121 24.383049 C 45.284706 24.541145 45.796352 24.853687 46.068188 25.077583 C 46.340023 25.301479 46.776348 25.765621 47.037788 26.109001 C 47.299232 26.452385 47.584114 26.766899 47.67086 26.807926 C 47.787117 26.862907 47.99493 26.734489 48.461273 26.319492 C 48.80925 26.009827 49.468479 25.521797 49.926224 25.234982 C 50.428173 24.920467 51.06197 24.622688 51.523186 24.484688 C 51.943768 24.358845 52.626911 24.199474 53.041286 24.130539 C 53.455654 24.0616 54.009937 23.992344 54.273022 23.976631 C 54.552002 23.959969 55.276237 24.049759 56.010715 24.192066 C 56.76767 24.338722 57.462685 24.524567 57.752899 24.657909 C 58.018456 24.779926 58.440796 25.041824 58.691448 25.239902 C 58.942104 25.437977 59.275661 25.761089 59.432693 25.957924 C 59.589722 26.154758 59.813484 26.579117 59.929924 26.900944 C 60.064316 27.272362 60.135746 27.71397 60.125484 28.110008 C 60.1124 28.615025 60.049469 28.891987 59.795307 29.563194 C 59.622604 30.019283 59.229286 30.976059 58.92128 31.689358 C 58.61327 32.402657 58.242085 33.247719 58.096416 33.567272 C 57.950752 33.886826 57.629471 34.601028 57.382454 35.154388 C 57.09045 35.808571 56.958672 36.197388 57.005722 36.265961 C 57.046387 36.325218 57.338264 36.399918 57.671951 36.436478 C 57.998569 36.472263 59.371613 36.494827 60.723152 36.486629 C 62.074696 36.478424 63.366451 36.5028 63.593731 36.540794 C 64.006966 36.609871 64.006966 36.609871 63.997757 38.20089 C 63.992687 39.075947 63.985649 40.021507 63.982098 40.302132 C 63.978405 40.594017 63.934036 40.839401 63.878429 40.875572 C 63.824963 40.910339 62.984898 40.94315 62.011631 40.948483 C 61.038364 40.953812 59.71386 40.949757 59.068291 40.939472 C 58.422722 40.929184 56.671467 40.915283 55.176617 40.908581 C 53.681755 40.901878 52.088718 40.905365 51.636528 40.916336 C 51.184326 40.927307 50.257103 40.938641 49.576035 40.941525 C 48.678764 40.945324 48.315353 40.914177 48.256508 40.828423 C 48.197662 40.742676 48.237648 40.567619 48.401688 40.19281 C 48.526203 39.908318 48.909344 39.034069 49.253128 38.250046 C 49.596901 37.466019 50.123634 36.271118 50.423656 35.594707 C 50.723671 34.918297 51.10051 34.053024 51.261074 33.671879 C 51.421635 33.290733 51.760838 32.555367 52.014854 32.037735 C 52.268879 31.5201 52.546795 30.895988 52.63245 30.650814 C 52.720604 30.398487 52.78624 29.974461 52.783699 29.673679 C 52.780727 29.322144 52.721146 29.083233 52.607647 28.967754 C 52.513287 28.87175 52.326237 28.771919 52.191978 28.745907 C 52.040188 28.716499 51.766098 28.801182 51.467236 28.96983 C 51.202888 29.118996 50.855186 29.420547 50.694569 29.639946 C 50.533958 29.859344 50.249298 30.325382 50.062004 30.675583 C 49.874718 31.025784 49.661266 31.448212 49.587673 31.614315 C 49.514076 31.780418 49.331589 32.177353 49.182137 32.496399 C 49.032692 32.815437 48.783653 33.367573 48.628723 33.723362 C 48.473797 34.079155 48.07373 34.960709 47.7397 35.682373 C 47.405663 36.404037 47.028988 37.206352 46.902637 37.465302 C 46.776283 37.724243 46.470589 38.381775 46.223309 38.926479 C 45.976036 39.471188 45.693295 40.091003 45.595001 40.303856 C 45.496708 40.516701 45.35471 40.731522 45.279453 40.781227 C 45.204193 40.830933 43.864815 40.879261 42.303055 40.888626 C 40.741299 40.897987 39.316032 40.885464 39.135807 40.86079 C 38.819469 40.817486 38.81049 40.805027 38.876701 40.501289 C 38.914421 40.328239 39.385017 39.249641 39.92247 38.104408 C 40.459919 36.959179 41.272762 35.21936 41.72879 34.238144 C 42.184814 33.256927 42.737522 32.055679 42.957031 31.568699 C 43.227081 30.969601 43.382336 30.492516 43.437141 30.093349 C 43.492596 29.689449 43.475014 29.415359 43.381378 29.224163 C 43.30616 29.070572 43.140064 28.886871 43.01228 28.815941 C 42.840103 28.720367 42.682808 28.712624 42.404827 28.78603 C 42.198517 28.840515 41.88562 29.004738 41.709499 29.150978 C 41.525803 29.303509 41.215199 29.742641 40.980953 30.181 C 40.756371 30.601273 40.42627 31.232994 40.247398 31.584827 C 40.068523 31.936657 39.819759 32.457653 39.694588 32.742592 C 39.569412 33.027531 39.310249 33.588673 39.118671 33.989574 C 38.927094 34.39048 38.561794 35.184029 38.306896 35.753025 C 38.051998 36.322021 37.732769 36.995728 37.597492 37.250153 C 37.462215 37.504578 37.27784 37.91156 37.187763 38.154556 C 37.097694 38.397556 36.909389 38.827141 36.769318 39.109192 C 36.629246 39.391247 36.413784 39.849907 36.290504 40.128433 C 36.167225 40.40696 35.985783 40.697594 35.887299 40.774284 C 35.763206 40.870907 35.383766 40.910782 34.651463 40.904167 C 34.070244 40.898918 33.141281 40.888039 32.587097 40.879997 C 32.032917 40.871956 31.209921 40.872383 30.758219 40.880951 C 30.306511 40.889519 29.858149 40.912941 29.761856 40.932999 Z M 24.564238 28.51675 C 24.334911 28.502243 24.155796 28.447643 24.131756 28.384918 C 24.109184 28.326031 24.243124 27.957115 24.429399 27.565109 C 24.615675 27.1731 24.918873 26.523201 25.10317 26.120888 C 25.28747 25.718575 25.516586 25.158295 25.612326 24.875824 C 25.724342 24.545315 25.874695 24.294971 26.034105 24.173538 C 26.202927 24.044945 26.432632 23.989449 26.755333 23.99929 C 27.015757 24.007233 28.095976 24.009243 29.155815 24.00375 C 30.215652 23.99826 31.260307 24.003395 31.477272 24.015163 C 31.808203 24.033112 31.874744 24.065384 31.890327 24.215496 C 31.900549 24.313915 31.764227 24.703705 31.587399 25.081696 C 31.410564 25.45969 30.992937 26.348511 30.659332 27.056854 C 30.228392 27.971867 29.99152 28.376678 29.841192 28.455044 C 29.71854 28.518978 28.869095 28.564041 27.820194 28.562252 C 26.82502 28.560558 25.773382 28.555199 25.483229 28.550343 C 25.193077 28.545486 24.779528 28.530373 24.564238 28.51675 Z"/>
    <style>
    :root{color: #bd0000;}
    @media (prefers-color-scheme:dark){:root{color: #fff;}}
    </style>
</svg>
