<?xml version="1.0" encoding="UTF-8"?>
<!-- Generated by Pixelmator Pro 3.1.1 -->
<svg width="678" height="185" viewBox="0 0 678 185" xmlns="http://www.w3.org/2000/svg" xmlns:xlink="http://www.w3.org/1999/xlink">
    <path id="Shape" fill="#ffffff" fill-rule="evenodd" stroke="none" d="M 5.39575 184.834885 C 2.771907 184.794312 1.514214 184.301178 0.834919 183.046616 C 0.319051 182.093887 -0.184533 171.74971 -0.284156 160.05957 C -0.452091 140.353424 -0.325017 138.715393 1.459869 137.57843 C 2.641357 136.825836 13.44531 136.268341 29.428345 136.135223 C 43.752174 136.01593 59.00156 135.472687 63.315876 134.927994 C 67.630196 134.383301 73.886581 133.186584 77.218964 132.268585 C 80.551346 131.350601 84.770508 129.405182 86.594894 127.945396 C 89.620979 125.524101 89.989784 124.720734 90.799362 118.786942 C 91.485542 113.757561 91.184662 110.486664 89.472496 104.362587 C 88.254654 100.006561 87.042389 92.67112 86.77858 88.061592 C 86.39093 81.288246 86.766663 77.810417 88.737411 69.930634 C 90.590302 62.522095 92.135422 58.657593 95.171402 53.838562 C 97.368927 50.350418 101.493126 45.030457 104.336288 42.016418 C 107.179459 39.002396 112.220177 34.436264 115.537903 31.869476 C 118.855614 29.302689 125.53389 25.031509 130.378479 22.37796 C 135.223099 19.72438 143.599594 15.799759 148.99292 13.65654 C 154.386261 11.513321 164.934967 8.076874 172.434509 6.019989 C 179.934067 3.96312 190.530853 1.767914 195.982971 1.141769 C 201.435074 0.515625 215.088791 -0.079025 226.324585 -0.179688 C 237.560364 -0.28035 250.180878 -0.294342 254.370148 -0.210785 C 260.333221 -0.091827 262.187988 0.249359 262.912567 1.360641 C 263.626617 2.455658 263.055817 4.605377 260.415436 10.765594 C 258.532928 15.157623 255.664261 21.580093 254.040619 25.03775 C 252.416992 28.495422 249.384796 35.003723 247.302399 39.500671 C 245.220001 43.99762 242.928772 48.089798 242.210754 48.594406 C 241.492752 49.09903 237.445602 49.604736 233.217102 49.718231 C 228.988617 49.831711 222.043106 50.148773 217.782669 50.422821 C 213.522217 50.696869 207.225464 51.453842 203.789856 52.105026 C 200.354279 52.756165 195.151413 54.227844 192.227921 55.375427 C 189.173111 56.574539 184.988388 59.397415 182.388275 62.012909 C 178.464233 65.960129 177.70845 67.345566 176.691299 72.456177 C 175.726929 77.301582 175.902115 79.660789 177.677353 85.734612 C 178.86467 89.796982 180.036407 95.225327 180.281189 97.797592 C 180.52597 100.369873 180.969131 105.201172 181.265991 108.533836 C 181.675766 113.134201 181.306396 116.25235 179.732086 121.483543 C 178.591599 125.273193 175.651611 131.897095 173.198792 136.203308 C 170.745956 140.509537 166.33754 146.447052 163.402267 149.397812 C 160.46701 152.348572 154.247238 157.465424 149.580536 160.768585 C 144.913864 164.071762 137.543243 168.485962 133.201355 170.577942 C 128.859482 172.669922 122.095016 175.535416 118.169212 176.945694 C 114.243408 178.355988 106.720146 180.423309 101.450859 181.539749 C 95.484444 182.803894 85.301941 183.718338 74.458435 183.963837 C 64.881897 184.180649 46.240265 184.477921 33.032589 184.624466 C 19.824917 184.770996 7.388339 184.865692 5.39575 184.834885 Z M 200.650375 183.974945 C 197.335297 183.872025 196.300125 183.489853 196.094742 182.29306 C 195.948593 181.441284 197.139877 177.720901 198.742096 174.025528 C 200.344299 170.330139 202.880295 164.566269 204.37764 161.216904 C 205.875015 157.867538 209.236145 150.162979 211.846878 144.095657 C 214.457596 138.028351 218.692123 128.319809 221.256927 122.521133 C 223.821716 116.72245 228.537674 105.960983 231.736801 98.606766 C 234.935944 91.252548 237.914001 84.332901 238.354736 83.229759 C 238.795441 82.12661 240.123276 80.427902 241.30542 79.454872 C 243.099075 77.978493 248.098526 77.669777 271.513336 77.589508 C 286.945526 77.536583 300.467743 77.602615 301.562744 77.736206 C 302.9422 77.904518 303.513733 78.695068 303.423706 80.310455 C 303.352234 81.592712 301.677277 86.077026 299.701569 90.275589 C 297.725861 94.474174 294.394958 101.812485 292.2995 106.582954 C 290.204071 111.353401 286.394562 120.001137 283.833862 125.800125 C 281.273132 131.599106 277.580475 139.925797 275.627899 144.303879 C 273.675323 148.681946 270.407532 156.06102 268.36615 160.701813 C 266.324738 165.342606 263.536896 171.885132 262.170837 175.240738 C 260.656769 178.960052 258.722473 181.986298 257.216003 182.992645 C 255.482681 184.150528 252.336975 184.541534 246.680832 184.302155 C 242.245636 184.114471 233.538315 184.118866 227.331207 184.311951 C 221.12413 184.505035 213.54689 184.538162 210.492935 184.385559 C 207.43898 184.232971 203.009827 184.048187 200.650375 183.974945 Z M 315.289673 184.270874 C 314.102417 184.524933 313.356628 184.155457 313.217285 183.244141 C 313.097504 182.461136 314.186432 179.185501 315.637024 175.964935 C 317.087616 172.74437 319.476746 167.484558 320.946228 164.276428 C 322.415741 161.068344 325.365204 154.432419 327.500671 149.529968 C 329.636078 144.627487 332.546814 138.095001 333.968964 135.013336 C 335.391144 131.931641 338.275238 125.50975 340.378113 120.742477 C 342.480988 115.975197 346.270935 107.439438 348.800201 101.77417 C 351.329437 96.108879 355.115143 87.569916 357.212891 82.798706 C 359.310608 78.027458 362.272552 71.389267 363.795044 68.047165 C 365.317535 64.705063 367.265778 59.711472 368.124573 56.950287 C 369.359497 52.979553 369.394806 51.746246 368.293335 51.05127 C 367.527405 50.568008 361.47821 50.098465 354.850708 50.007874 C 348.223236 49.917297 340.326508 49.772339 337.302429 49.685776 C 333.142151 49.566696 331.561493 49.159775 330.806976 48.013596 C 329.998291 46.785049 331.769287 42.294128 340.17749 24.251617 C 345.8797 12.015686 351.276978 1.51561 352.171448 0.918076 C 353.065918 0.320526 358.606689 -0.151215 364.484253 -0.130249 C 370.361847 -0.109268 382.628021 0.010605 391.742371 0.136169 C 406.360565 0.33754 408.98233 0.628204 413.983948 2.601868 C 419.570862 4.806473 419.794098 4.805649 429.227631 2.544968 C 434.493195 1.283081 441.956726 -0.011719 445.813324 -0.332413 C 449.669891 -0.653107 456.505341 -0.475418 461.003204 0.062454 C 467.12381 0.794388 470.894012 1.827316 475.98999 4.168472 C 479.734863 5.888916 485.15509 9.290115 488.034882 11.726624 C 490.914612 14.163162 495.536926 19.214111 498.30658 22.950897 C 501.076233 26.687714 504.094208 30.110382 505.013184 30.556839 C 506.244751 31.155151 508.446289 29.757675 513.386597 25.241531 C 517.072998 21.871658 524.056702 16.560745 528.905945 13.439514 C 534.22345 10.01683 540.937744 6.776321 545.82373 5.274551 C 550.279297 3.90506 557.516357 2.170761 561.906128 1.420563 C 566.295837 0.670349 572.167786 -0.083313 574.954834 -0.254303 C 577.910278 -0.435623 585.582642 0.541504 593.363525 2.090118 C 601.382507 3.686111 608.7453 5.708511 611.819763 7.159622 C 614.632996 8.487442 619.107178 11.337494 621.762512 13.493042 C 624.417908 15.64859 627.951538 19.164795 629.615112 21.306824 C 631.278625 23.448837 633.649109 28.066864 634.882629 31.569077 C 636.306335 35.611008 637.063049 40.416748 636.954346 44.726578 C 636.815735 50.222321 636.149048 53.236313 633.456543 60.540634 C 631.626953 65.503967 627.460266 75.915939 624.197327 83.678322 C 620.934326 91.440704 617.002075 100.636948 615.458923 104.114433 C 613.915771 107.591919 610.512207 115.36412 607.895386 121.385979 C 604.801941 128.505066 603.405945 132.736267 603.904358 133.482483 C 604.335144 134.12735 607.427246 134.940308 610.962219 135.338165 C 614.422363 135.72757 628.968018 135.973145 643.285889 135.883911 C 657.603821 135.794617 671.28833 136.059875 673.696106 136.473328 C 678.073792 137.225052 678.073792 137.225052 677.976257 154.539063 C 677.922546 164.061783 677.847961 174.351669 677.810364 177.405533 C 677.77124 180.58197 677.301208 183.252335 676.712097 183.645905 C 676.145691 184.024277 667.246277 184.381332 656.93573 184.439362 C 646.625183 184.497375 632.593689 184.453232 625.7547 184.341309 C 618.91571 184.22937 600.363342 184.078094 584.527283 184.005142 C 568.691101 183.932175 551.81488 183.970154 547.024475 184.089539 C 542.233948 184.208923 532.411194 184.33226 525.196106 184.363647 C 515.690674 184.404999 511.84079 184.066025 511.217377 183.132843 C 510.593994 182.199677 511.017578 180.294678 512.755371 176.215897 C 514.074463 173.119919 518.133362 163.606049 521.77533 155.07402 C 525.417175 146.541977 530.997253 133.53862 534.175598 126.177696 C 537.353882 118.816772 541.346008 109.400558 543.046997 105.252808 C 544.747925 101.105057 548.34137 93.102547 551.032349 87.469475 C 553.72345 81.836395 556.667603 75.044571 557.575012 72.376511 C 558.508911 69.630585 559.204224 65.01619 559.177307 61.742981 C 559.145813 57.91745 558.514648 55.317551 557.312256 54.060867 C 556.312622 53.016113 554.331055 51.929718 552.908752 51.646637 C 551.30072 51.326599 548.397095 52.248169 545.231018 54.08342 C 542.430603 55.706726 538.747131 58.988327 537.045593 61.3759 C 535.344116 63.763458 532.328491 68.835022 530.34436 72.646042 C 528.360291 76.457047 526.09906 81.054077 525.319397 82.861656 C 524.539734 84.66925 522.606506 88.988853 521.023254 92.460785 C 519.440063 95.932716 516.801819 101.941238 515.160522 105.813065 C 513.519287 109.684914 509.281097 119.27829 505.742432 127.131683 C 502.203735 134.985107 498.213348 143.716202 496.874817 146.534134 C 495.536255 149.352036 492.297791 156.507553 489.678192 162.435226 C 487.058624 168.362915 484.063354 175.108002 483.022064 177.424286 C 481.980743 179.740585 480.476471 182.078308 479.679199 182.619232 C 478.881927 183.160141 464.692871 183.686081 448.14798 183.787994 C 431.603119 183.889893 416.504211 183.753571 414.59494 183.485077 C 411.243744 183.013809 411.148621 182.878235 411.850037 179.572861 C 412.249664 177.689636 417.235046 165.951981 422.92868 153.489166 C 428.622284 141.026352 437.233307 122.093018 442.064362 111.4151 C 446.895386 100.737152 452.750641 87.664749 455.07605 82.365265 C 457.93689 75.845657 459.581604 70.653854 460.162201 66.309998 C 460.749695 61.914581 460.563416 58.931839 459.571472 56.851166 C 458.774628 55.179733 457.015045 53.180649 455.661346 52.408752 C 453.837341 51.368713 452.17099 51.284424 449.226135 52.083282 C 447.040527 52.676178 443.725769 54.463333 441.860016 56.054749 C 439.913971 57.714645 436.623505 62.493454 434.141968 67.263809 C 431.762787 71.837372 428.265778 78.711998 426.37088 82.540771 C 424.475922 86.369522 421.840576 92.039162 420.514526 95.139977 C 419.188477 98.240784 416.442963 104.347321 414.413422 108.710083 C 412.383911 113.072845 408.514008 121.708549 405.81369 127.900574 C 403.113373 134.09259 399.731506 141.424103 398.298431 144.192841 C 396.865356 146.961563 394.912109 151.390488 393.957886 154.034882 C 393.003693 156.679291 391.00885 161.354202 389.524963 164.423584 C 388.041077 167.492981 385.758514 172.484253 384.452515 175.515289 C 383.146545 178.546341 381.224396 181.709106 380.181061 182.543671 C 378.866455 183.595154 374.846771 184.029114 367.088928 183.957123 C 360.931641 183.899963 351.090454 183.781601 345.219574 183.694092 C 339.348724 183.606583 330.630096 183.611237 325.844879 183.704468 C 321.059601 183.797699 316.309753 184.052567 315.289673 184.270874 Z M 260.227386 49.152878 C 257.797974 48.99501 255.900467 48.400833 255.645782 47.718246 C 255.406677 47.077408 256.825592 43.062729 258.79895 38.796768 C 260.772308 34.530792 263.984314 27.458359 265.936707 23.080246 C 267.88913 18.702133 270.316345 12.60498 271.330566 9.531006 C 272.517242 5.934326 274.110046 3.209976 275.798798 1.888519 C 277.58725 0.489105 280.020691 -0.114838 283.439301 -0.007721 C 286.198181 0.07872 297.641754 0.100571 308.869415 0.040817 C 320.097076 -0.018936 331.163879 0.036942 333.462341 0.165009 C 336.96814 0.360321 337.673065 0.711517 337.838165 2.345123 C 337.946442 3.416138 336.502289 7.657959 334.628998 11.771408 C 332.755676 15.884872 328.331421 25.557327 324.797302 33.265762 C 320.232025 43.223251 317.722656 47.628571 316.130127 48.481339 C 314.83078 49.177124 305.83197 49.667511 294.720184 49.648056 C 284.177551 49.629623 273.036774 49.571289 269.962952 49.518448 C 266.88916 49.465591 262.508118 49.301102 260.227386 49.152878 Z"/>
</svg>
